<?xml version="1.0" standalone="no"?>
<!DOCTYPE svg PUBLIC "-//W3C//DTD SVG 1.1//EN" "http://www.w3.org/Graphics/SVG/1.1/DTD/svg11.dtd" >
<svg xmlns="http://www.w3.org/2000/svg">
<metadata>Generated by IcoMoon</metadata>
<defs>
<font id="iconFont" horiz-adv-x="1024">
<font-face units-per-em="1024" ascent="960" descent="-64" />
<missing-glyph horiz-adv-x="1024" />
<glyph unicode="&#x20;" horiz-adv-x="512" d="" />
<glyph unicode="&#xe900;" glyph-name="star-v2" horiz-adv-x="1086" d="M543.030 960l125.403-385.946h405.805l-328.304-238.527 125.4-385.946-328.304 238.527-328.305-238.527 125.401 385.946-328.304 238.527h405.806l125.403 385.946z" />
<glyph unicode="&#xe901;" glyph-name="phone" horiz-adv-x="1103" d="M945.223-64h-6.695c-773.909 44.505-883.792 697.502-899.152 896.788-2.5 31.294 7.558 62.296 27.952 86.164s49.449 38.637 80.749 41.049h217.009c32.28 0.031 61.312-19.635 73.255-49.625l59.865-147.298c11.782-29.268 4.964-62.744-17.329-85.071l-83.889-84.677c26.842-152.534 146.072-272.080 298.535-299.323l85.465 84.677c22.663 22.048 56.322 28.407 85.466 16.148l148.48-59.471c29.523-12.316 48.672-41.266 48.443-73.255v-207.951c0-65.252-52.901-118.154-118.154-118.154zM157.529 881.231c-21.751 0-39.385-17.633-39.385-39.385v-3.151c18.117-233.157 134.302-784.542 824.715-823.926 10.445-0.646 20.724 2.899 28.562 9.846 7.83 6.94 12.579 16.723 13.186 27.175v210.314l-148.48 59.471-113.035-112.246-18.905 2.363c-342.646 42.929-389.12 385.575-389.12 389.12l-2.363 18.905 111.852 113.034-59.077 148.48h-207.951z" />
<glyph unicode="&#xe902;" glyph-name="book" horiz-adv-x="1067" d="M789.333 832v-728l-256 129.28-28.8-14.4-227.2-114.88v728h512zM789.333 896h-512c-35.346 0-64-28.654-64-64v-832l320 160 320-160v832c0 35.346-28.655 64-64 64z" />
<glyph unicode="&#xe903;" glyph-name="contact" horiz-adv-x="1061" d="M585.966 0l-55.68 32 128 224h192c35.346 0 64 28.654 64 64v384c0 35.346-28.654 64-64 64h-640c-35.346 0-64-28.654-64-64v-384c0-35.346 28.654-64 64-64h288v-64h-288c-70.693 0-128 57.307-128 128v384c0 70.693 57.307 128 128 128h640c70.693 0 128-57.307 128-128v-384c0-70.693-57.307-128-128-128h-154.88l-109.44-192zM786.286 640h-512v-64h512v64zM594.286 448h-320v-64h320v64z" />
<glyph unicode="&#xe904;" glyph-name="user" horiz-adv-x="1067" d="M533.333 832c88.367 0 160-71.634 160-160s-71.633-160-160-160c-88.367 0-160 71.634-160 160s71.633 160 160 160zM533.333 896c-123.712 0-224-100.288-224-224s100.288-224 224-224c123.712 0 224 100.288 224 224s-100.288 224-224 224zM853.333 0h-64v160c0 42.436-16.858 83.132-46.861 113.139-30.007 30.003-70.703 46.861-113.139 46.861h-192c-88.366 0-160-71.633-160-160v-160h-64v160c0 123.712 100.288 224 224 224h192c123.712 0 224-100.288 224-224v-160z" />
<glyph unicode="&#xe905;" glyph-name="map" horiz-adv-x="964" d="M298.439 466.071l183.416-259.012 186.732 263.228c35.111 43.838 54.236 98.336 54.212 154.504 0.831 134.050-106.9 243.532-240.944 244.856-94.808-1.415-180.299-57.374-219.531-143.696s-25.168-187.526 36.114-259.88zM541.529 658.824c0-33.267-26.968-60.235-60.235-60.235s-60.235 26.969-60.235 60.235c0 33.267 26.969 60.235 60.235 60.235s60.235-26.969 60.235-60.235zM842.704 568.471h-60.235v-60.235h60.235v-421.647h-722.822v421.647h60.235v60.235h-60.235c-33.267 0-60.235-26.969-60.235-60.235v-421.647c0-33.268 26.968-60.235 60.235-60.235h722.822c33.268 0 60.235 26.967 60.235 60.235v421.647c0 33.267-26.967 60.235-60.235 60.235zM301.149 624.791c-1.004 100.851 79.856 183.463 180.706 184.621 100.85-1.158 181.709-83.77 180.709-184.621-0.217-42.394-14.758-83.469-41.261-116.555l-139.448-196.367-135.831 192.452c-28.769 33.566-44.674 76.263-44.875 120.471z" />
<glyph unicode="&#xe906;" glyph-name="arw-right" horiz-adv-x="1067" d="M713.451 417.788c16.717 16.67 16.717 43.755-0.004 60.425l-268.228 267.453c-12.382 12.346-32.417 12.346-44.798 0-12.433-12.396-12.433-32.533 0-44.93l253.468-252.735-253.468-252.736c-12.433-12.395-12.433-32.533 0-44.928 12.381-12.348 32.416-12.348 44.798 0l268.233 267.452z" />
<glyph unicode="&#xe907;" glyph-name="schedule" horiz-adv-x="1075" d="M358.416 960c21.208 0 38.4-17.192 38.4-38.4v-62.886h281.599v62.886c0 21.208 17.193 38.4 38.4 38.4s38.4-17.192 38.4-38.4v-62.886h140.8c78.377 0 141.911-63.537 141.911-141.914v-614.4c0-78.377-63.534-141.916-141.911-141.916h-716.802c-78.377 0-141.914 63.539-141.914 141.916v614.4c0 78.377 63.537 141.914 141.914 141.914h140.802v62.886c0 21.208 17.192 38.4 38.4 38.4zM678.415 779.686h-281.599v-62.886c0-21.208-17.192-38.4-38.4-38.4s-38.4 17.192-38.4 38.4v62.886h-140.802c-34.732 0-62.886-28.155-62.886-62.886v-153.6h842.572v153.6c0 34.731-28.155 62.886-62.884 62.886h-140.8v-62.886c0-21.208-17.193-38.4-38.4-38.4s-38.4 17.192-38.4 38.4v62.886zM116.327 486.4v-384c0-34.729 28.155-62.889 62.886-62.889h716.802c34.729 0 62.884 28.16 62.884 62.889v384h-842.572z" />
<glyph unicode="&#xe908;" glyph-name="arw-left" horiz-adv-x="1067" d="M353.218 417.788c-16.721 16.67-16.721 43.755 0 60.425l268.23 267.453c12.382 12.346 32.418 12.346 44.8 0 12.429-12.396 12.429-32.533 0-44.93l-253.472-252.735 253.472-252.736c12.429-12.395 12.429-32.533 0-44.928-12.382-12.348-32.418-12.348-44.8 0l-268.23 267.452z" />
<glyph unicode="&#xe909;" glyph-name="boarding" horiz-adv-x="1061" d="M549.808 889.28c-11.633 9.19-28.050 9.19-39.684 0l-459.838-358.72 39.68-50.56 56.32 44.16v-396.16c0-35.346 28.654-64 64-64h640c35.346 0 64 28.654 64 64v395.842l56.32-43.842 39.68 50.242-460.478 359.039zM594.286 128h-128v256h128v-256zM658.286 128v256c0 35.346-28.654 64-64 64h-128c-35.346 0-64-28.654-64-64v-256h-192v446.080l320 249.28 320-249.599v-445.762h-192z" />
<glyph unicode="&#xe90a;" glyph-name="plus" d="M507.008 831.702l4.992 0.298c10.45-0.002 20.536-3.838 28.344-10.783 7.813-6.944 12.8-16.513 14.024-26.892l0.297-4.992v-298.667h298.67c10.45-0.001 20.536-3.838 28.344-10.782s12.8-16.514 14.024-26.892l0.297-4.992c0-10.45-3.84-20.536-10.783-28.344-6.943-7.813-16.512-12.8-26.89-14.024l-4.992-0.297h-298.67v-298.67c0-10.45-3.835-20.536-10.783-28.344-6.943-7.808-16.512-12.8-26.89-14.024l-4.992-0.297c-10.45 0-20.537 3.84-28.346 10.783s-12.799 16.512-14.022 26.89l-0.298 4.992v298.67h-298.667c-10.45 0-20.537 3.835-28.346 10.783-7.81 6.943-12.799 16.512-14.022 26.89l-0.298 4.992c0.002 10.45 3.838 20.537 10.783 28.346s16.513 12.799 26.892 14.022l4.992 0.298h298.667v298.667c0.001 10.45 3.838 20.537 10.782 28.346s16.514 12.799 26.892 14.022v0z" />
<glyph unicode="&#xe90b;" glyph-name="close" d="M179.629 772.82l3.542 4.010c7.347 7.346 17.122 11.76 27.491 12.411s20.62-2.502 28.829-8.87l4.010-3.542 268.499-268.458 268.503 268.458c3.937 4.075 8.643 7.326 13.85 9.562s10.803 3.414 16.471 3.463c5.663 0.049 11.284-1.030 16.527-3.176s10.004-5.313 14.013-9.319c4.004-4.006 7.173-8.77 9.318-14.013s3.226-10.862 3.174-16.527c-0.046-5.665-1.224-11.264-3.461-16.47s-5.489-9.914-9.564-13.85l-268.457-268.5 268.457-268.503c7.347-7.347 11.761-17.121 12.416-27.489 0.65-10.368-2.504-20.623-8.873-28.831l-3.543-4.009c-7.342-7.347-17.121-11.761-27.489-12.411-10.368-0.655-20.618 2.499-28.831 8.868l-4.009 3.543-268.503 268.457-268.499-268.457c-8.047-7.772-18.825-12.073-30.012-11.976s-21.888 4.582-29.799 12.493c-7.911 7.91-12.398 18.611-12.495 29.798s4.204 21.965 11.976 30.013l268.458 268.503-268.458 268.5c-7.346 7.347-11.76 17.122-12.411 27.491s2.502 20.62 8.87 28.829v0z" />
<glyph unicode="&#xe90c;" glyph-name="star" horiz-adv-x="1092" d="M546.133 925.867l153.443-334.938 365.964-42.43-271.135-249.434 72.738-361.159-321.010 180.777-321.009-180.777 72.734 361.159-271.129 249.434 365.961 42.43 153.442 334.938z" />
<glyph unicode="&#xe90d;" glyph-name="search" d="M960.004 45.12l-241.6 242.88c119.979 144.764 105.007 358.26-34.001 484.862s-352.969 121.608-485.919-11.342c-132.95-132.949-137.943-346.912-11.342-485.92s340.098-153.98 484.861-34.001l242.88-241.6 45.12 45.12zM160.004 512c0 159.059 128.942 288.001 288 288.001s288-128.942 288-288.001c0-159.057-128.943-288-288-288s-288 128.943-288 288z" />
<glyph unicode="&#xe90e;" glyph-name="calendar" horiz-adv-x="964" d="M783.059 808.515h-120.471v60.235h-60.235v-60.235h-240.941v60.235h-60.235v-60.235h-120.471c-33.267 0-60.235-26.969-60.235-60.235v-602.354c0-33.268 26.969-60.235 60.235-60.235h602.353c33.268 0 60.235 26.967 60.235 60.235v602.354c0 33.267-26.967 60.235-60.235 60.235zM783.059 145.926h-602.353v421.648h602.353v-421.648zM783.059 627.809h-602.353v120.471h120.471v-60.235h60.235v60.235h240.941v-60.235h60.235v60.235h120.471v-120.471z" />
<glyph unicode="&#xe90f;" glyph-name="yard" horiz-adv-x="1308" d="M336.229 886.029l108.653-242.554c1.967-4.389 2.983-9.144 2.983-13.954v-24.11h61.499v24.11c0 4.809 1.016 9.565 2.982 13.954l108.654 242.554c5.501 12.277 17.698 20.179 31.152 20.179 13.449 0 25.651-7.902 31.147-20.179l108.652-242.554c1.968-4.389 2.987-9.144 2.987-13.954v-24.11h62.015v24.11c0 4.809 1.013 9.565 2.981 13.954l108.652 242.554c5.501 12.277 17.698 20.179 31.152 20.179 13.449 0 25.651-7.902 31.147-20.179l108.658-242.554c1.963-4.389 2.981-9.144 2.981-13.954v-13.964h112.259v-213.592h-112.259v-44.994h112.259v-213.589h-112.259v-119.467c0-18.853-15.28-34.133-34.133-34.133h-217.304c-18.853 0-34.133 15.28-34.133 34.133v119.467h-62.015v-119.467c0-18.853-15.286-34.133-34.133-34.133h-217.307c-18.851 0-34.133 15.28-34.133 34.133v119.467h-61.499v-119.467c0-18.853-15.282-34.133-34.133-34.133h-217.305c-18.852 0-34.134 15.28-34.134 34.133v119.467h-108.653v213.589h108.653v44.994h-108.653v213.592h108.653v13.964c0 4.809 1.017 9.565 2.983 13.954l108.653 242.554c5.499 12.277 17.698 20.179 31.151 20.179s25.651-7.902 31.151-20.179zM379.083 177.516c0 2.025 0.176 4.005 0.515 5.939v133.444c-0.338 1.929-0.515 3.914-0.515 5.939s0.176 4.011 0.515 5.939v101.382c-0.338 1.929-0.515 3.913-0.515 5.939s0.176 4.010 0.515 5.939v180.187l-74.519 166.355-74.52-166.355v-564.176h149.039v113.527c-0.338 1.929-0.515 3.908-0.515 5.939zM509.363 211.649v77.056h-61.499v-77.056h61.499zM577.627 58.049h149.043v564.176l-74.519 166.355-74.524-166.355v-564.176zM856.951 211.649v77.056h-62.015v-77.056h62.015zM925.218 177.516v-119.467h149.038v564.176l-74.519 166.355-74.519-166.355v-444.71zM121.905 288.705v-77.056h40.386v77.056h-40.386zM509.363 356.972v44.994h-61.499v-44.994h61.499zM856.951 356.972v44.994h-62.015v-44.994h62.015zM1142.522 288.705v-77.056h43.992v77.056h-43.992zM509.363 470.233v87.204h-61.499v-87.204h61.499zM856.951 470.233v87.204h-62.015v-87.204h62.015zM121.905 547.291v-77.058h40.386v77.058h-40.386zM1142.522 470.233h43.992v77.058h-43.992v-77.058zM343.699 588.665c0-21.422-17.291-38.788-38.621-38.788s-38.621 17.366-38.621 38.788c0 21.422 17.291 38.787 38.621 38.787s38.621-17.366 38.621-38.787zM652.151 549.877c21.328 0 38.616 17.366 38.616 38.788s-17.289 38.787-38.616 38.787c-21.333 0-38.622-17.366-38.622-38.787s17.289-38.788 38.622-38.788zM1038.359 588.665c0-21.422-17.294-38.788-38.622-38.788-21.333 0-38.622 17.366-38.622 38.788s17.289 38.787 38.622 38.787c21.328 0 38.622-17.366 38.622-38.787z" />
<glyph unicode="&#xe910;" glyph-name="stroll" horiz-adv-x="1247" d="M408.606-17.657c31.209 0 60.105 6.068 86.689 17.653 64.151 27.586 136.971 27.586 200.544 0 26.588-11.585 56.062-17.653 86.693-17.653 117.319 0 212.102 90.482 212.102 202.48 0 84.965-46.236 151.174-106.919 201.381-165.866 137.931-414.956 136.276-581.981 0-62.417-50.759-110.385-117.515-110.385-201.381 1.156-111.999 95.937-202.48 213.258-202.48zM464.54 612.325c73.381 13.343 118.414 96.579 100.592 185.913-17.827 89.334-91.759 150.938-165.138 137.595s-118.415-96.579-100.591-185.913c17.824-89.334 91.758-150.938 165.136-137.595zM921.306 749.936c17.822 89.334-27.212 172.57-100.592 185.913-73.376 13.343-147.314-48.261-165.136-137.595-17.827-89.334 27.212-172.57 100.588-185.913 73.381-13.343 147.314 48.261 165.14 137.595zM173.932 481.289c44.249 17.457 61.241 75.216 37.952 129.004s-78.038 83.238-122.287 65.778c-44.249-17.46-61.241-75.217-37.952-129.005 23.288-53.786 78.038-83.237 122.287-65.776zM1181.883 532.251c23.289 53.788 6.3 111.546-37.95 129.006s-98.999-11.99-122.288-65.778c-23.289-53.788-6.295-111.545 37.955-129.007 44.246-17.457 98.994 11.99 122.283 65.779z" />
<glyph unicode="&#xe911;" glyph-name="longterm" d="M592.64 0c25.452 0.020 49.853 10.153 67.84 28.16l271.36 271.36c18.074 18.012 28.237 42.481 28.237 67.999s-10.163 49.987-28.237 68.004l-432.32 432.317c-17.986 18.009-42.388 28.137-67.84 28.16h-271.68c-53.019 0-96-42.981-96-96v-271.68c0.023-25.452 10.151-49.854 28.16-67.84l432.64-432.32c17.987-18.007 42.388-28.14 67.84-28.16zM256 576c0-70.692 57.308-128 128-128s128 57.308 128 128c0 70.692-57.308 128-128 128s-128-57.308-128-128zM320 576c0 35.346 28.654 64 64 64s64-28.654 64-64c0-35.346-28.654-64-64-64s-64 28.654-64 64zM128 800c0 17.673 14.327 32 32 32h271.68c8.552-0.035 16.734-3.493 22.72-9.6l432.323-432.323c12.406-12.477 12.406-32.635 0-45.117l-271.683-271.683c-12.483-12.406-32.64-12.406-45.117 0l-432.323 432.323c-6.107 5.986-9.565 14.168-9.6 22.72v271.68z" />
<glyph unicode="&#xe912;" glyph-name="first-aid" d="M329.144 630.856v-68.571h68.571v68.571h-68.571zM329.144 265.144h68.571v68.571h-68.571v-68.571zM329.144 82.285v0zM694.856 265.144v68.571h-68.571v-68.571h68.571zM694.856 630.856h-68.571v-68.571h68.571v68.571zM649.142 790.858c-12.623 0-22.857 10.232-22.857 22.857h137.142c0 63.118-51.167 114.285-114.285 114.285v-137.142zM374.858 790.858h274.287v137.142h-274.287v-137.142zM397.715 813.715c0-12.625-10.232-22.857-22.857-22.857v137.142c-63.118 0-114.285-51.167-114.285-114.285h137.142zM397.715 630.856v182.856h-137.142v-182.856h137.142zM146.285 562.285h182.856v137.142h-182.856v-137.142zM169.142 585.142c0-12.625-10.232-22.857-22.857-22.857v137.142c-63.118 0-114.285-51.167-114.285-114.285h137.142zM169.142 310.858v274.287h-137.142v-274.287h137.142zM146.285 333.715c12.625 0 22.857-10.234 22.857-22.857h-137.142c0-63.118 51.167-114.285 114.285-114.285v137.142zM329.144 333.715h-182.856v-137.142h182.856v137.142zM397.715 82.285v182.856h-137.142v-182.856h137.142zM374.858 105.142c12.625 0 22.857-10.234 22.857-22.857h-137.142c0-63.118 51.167-114.285 114.285-114.285v137.142zM649.142 105.142h-274.287v-137.142h274.287v137.142zM626.285 82.285c0 12.623 10.234 22.857 22.857 22.857v-137.142c63.118 0 114.285 51.167 114.285 114.285h-137.142zM626.285 265.144v-182.856h137.142v182.856h-137.142zM877.715 333.715h-182.856v-137.142h182.856v137.142zM854.858 310.858c0 12.623 10.234 22.857 22.857 22.857v-137.142c63.118 0 114.285 51.167 114.285 114.285h-137.142zM854.858 585.142v-274.287h137.142v274.287h-137.142zM877.715 562.285c-12.623 0-22.857 10.232-22.857 22.857h137.142c0 63.118-51.167 114.285-114.285 114.285v-137.142zM694.856 562.285h182.856v137.142h-182.856v-137.142zM626.285 813.715v-182.856h137.142v182.856h-137.142z" />
<glyph unicode="&#xe913;" glyph-name="wash" d="M922.557 218.563l-186.56 186.88v138.56c0.051 8.506-3.29 16.678-9.28 22.72l-320 319.999c-6.006 6.058-14.186 9.466-22.72 9.466-8.531 0-16.71-3.408-22.72-9.466l-287.999-287.999c-6.058-6.010-9.466-14.189-9.466-22.72 0-8.534 3.408-16.714 9.466-22.72l319.999-320c6.042-5.99 14.214-9.331 22.72-9.28h138.88l186.56-186.88c50.016-50.016 131.107-50.016 181.12 0 50.016 50.013 50.016 131.104 0 181.12v0.32zM191.998 626.883l73.28-73.6 45.44 45.44-73.6 73.279 50.88 50.88 137.279-137.599 45.44 45.44-137.6 137.279 50.88 50.88 210.88-210.879-242.88-242.88-210.879 210.88 50.88 50.88zM877.117 82.883c-24.96-24.816-65.277-24.816-90.24 0l-196.16 195.84c-6.816 4.688-14.566 7.853-22.72 9.28h-138.88l-32 32 242.88 242.88 32-32v-138.88c0.035-8.397 3.37-16.442 9.28-22.4l195.84-196.48c24.816-24.963 24.816-65.28 0-90.24z" />
<glyph unicode="&#xe914;" glyph-name="check" d="M798.73 673.275l-389.12-389.12-225.28 225.28-46.080-46.080 271.36-271.36 435.2 435.2-46.080 46.080z" />
<glyph unicode="&#xe915;" glyph-name="canceled" horiz-adv-x="916" d="M94.892 536.099l-1.319 95.27c0.3 1.8 0.456 3.646 0.456 5.532 0 145.017 94.413 256.288 235.268 256.288h234.981c145.384 0 260.775-111.636 260.869-251.803l-0.668-106.633h-89.886c-44.622 0-87.695 17.597-119.442 48.659-21.965 21.569-51.682 33.531-82.394 33.531h-154.139c-28.19 0-55.587-10.132-77.013-28.551v0l-0.146-0.124-12.331-10.722c-30.871-26.567-70.549-41.445-111.808-41.445h-82.43zM28.703 492.062l1.497-108.167c0.13-233.954 193.199-422.548 430.060-422.548 236.908 0 430.005 188.664 430.061 422.678v0.108l1.617 256.687v0.393c0 179.346-147.58 318.768-327.661 318.768h-234.981c-182.343 0-299.094-144.787-302.004-316.501-0.419-2.191-0.624-4.457-0.592-6.775l1.72-124.244c-0.942-3.085-1.448-6.362-1.448-9.758 0-3.721 0.608-7.297 1.731-10.642zM95.816 469.305h81.505c57.344 0 112.498 20.677 155.455 57.675l0.119 0.105 12.315 10.706c9.283 7.958 21.205 12.355 33.409 12.355h154.139c13.468 0 26.311-5.271 35.606-14.406l0.049-0.046c44.242-43.302 104.098-67.738 166.182-67.738h89.465l-0.528-83.615v-0.21c0-196.018-162.045-355.994-363.269-355.994-201.222 0-363.269 159.976-363.269 355.994l-0.003 0.461-1.173 84.712zM510.736 852.622c13.064-2.192 21.337-17.771 18.481-34.797-2.859-17.026-15.764-29.050-28.826-26.858-13.064 2.192-21.337 17.771-18.481 34.797 2.859 17.026 15.764 29.051 28.826 26.858zM436.332 790.926c13.061 2.192 21.334 17.771 18.478 34.797s-15.762 29.051-28.826 26.858c-13.061-2.192-21.337-17.771-18.478-34.797 2.856-17.026 15.762-29.051 28.826-26.858zM445.437 656.575c-6.198-2.695-12.665-4.312-19.672-4.312-26.408 0-47.697 22.097-47.427 49.043 0 20.211 10.779 36.379 24.792 48.775 37.457 33.145 93.507 33.415 130.964 0 13.743-12.126 23.983-28.295 23.983-48.775 0-26.947-21.288-49.043-47.697-49.043-7.006 0-13.743 1.617-19.672 4.312-14.552 6.737-30.72 6.737-45.272 0zM617.44 203.8c8.373 12.097 5.352 28.691-6.745 37.063-49.295 34.115-99.891 52.431-151.312 52.431-51.518 0-101.093-18.386-148.229-52.828-11.878-8.68-14.473-25.344-5.794-37.225 8.68-11.878 25.347-14.471 37.225-5.791 39.904 29.154 78.716 42.566 116.798 42.566 38.179 0 78.398-13.484 120.994-42.962 12.097-8.373 28.691-5.354 37.063 6.745zM369.718 395.719c0-23.665-19.545-42.846-43.655-42.846s-43.655 19.181-43.655 42.846c0 23.662 19.545 42.846 43.655 42.846s43.655-19.184 43.655-42.846zM594.728 352.873c24.11 0 43.655 19.181 43.655 42.846 0 23.662-19.545 42.846-43.655 42.846s-43.655-19.184-43.655-42.846c0-23.665 19.545-42.846 43.655-42.846zM371.262 745.352c12.32 4.481 17.562 21.164 11.709 37.263-5.856 16.099-20.59 25.517-32.911 21.036s-17.562-21.164-11.706-37.263c5.853-16.099 20.588-25.517 32.908-21.036zM549.546 782.615c-5.856-16.099-0.614-32.782 11.706-37.263s27.055 4.937 32.911 21.036c5.856 16.099 0.614 32.782-11.706 37.263s-27.055-4.937-32.911-21.036z" />
<glyph unicode="&#xe916;" glyph-name="home" d="M518.921 869.402l384-252.587c8.994-5.918 14.413-15.965 14.413-26.735v-536.747c0-17.673-14.327-32-32-32h-768c-17.673 0-32 14.327-32 32v536.747c0 10.769 5.417 20.817 14.415 26.735l383.998 252.587c10.675 7.020 24.499 7.020 35.174 0zM640 85.333h213.333v487.494l-352 231.537-352-231.537v-487.494h213.333v266.667c0 17.673 14.327 32 32 32h213.333c17.673 0 32-14.327 32-32v-266.667zM426.667 85.333h149.333v234.667h-149.333v-234.667z" />
<glyph unicode="&#xe917;" glyph-name="upcoming" horiz-adv-x="916" d="M94.892 536.099l-1.319 95.27c0.3 1.8 0.456 3.646 0.456 5.532 0 145.017 94.413 256.288 235.268 256.288h234.981c145.384 0 260.775-111.636 260.869-251.803l-0.668-106.633h-89.886c-44.622 0-87.695 17.597-119.442 48.659-21.965 21.569-51.682 33.531-82.394 33.531h-154.139c-28.19 0-55.587-10.132-77.013-28.551v0l-0.146-0.124-12.331-10.722c-30.871-26.567-70.549-41.445-111.808-41.445h-82.43zM28.703 492.062l1.497-108.167c0.13-233.954 193.199-422.548 430.060-422.548 236.908 0 430.005 188.664 430.061 422.678v0.108l1.617 256.687v0.393c0 179.346-147.58 318.768-327.661 318.768h-234.981c-182.343 0-299.094-144.787-302.004-316.501-0.419-2.191-0.624-4.457-0.592-6.775l1.72-124.244c-0.942-3.085-1.448-6.362-1.448-9.758 0-3.721 0.608-7.297 1.731-10.642zM95.816 469.305h81.505c57.344 0 112.498 20.677 155.455 57.675l0.119 0.105 12.315 10.706c9.283 7.958 21.205 12.355 33.409 12.355h154.139c13.468 0 26.311-5.271 35.606-14.406l0.049-0.046c44.242-43.302 104.098-67.738 166.182-67.738h89.465l-0.528-83.615v-0.21c0-196.018-162.045-355.994-363.269-355.994-201.222 0-363.269 159.976-363.269 355.994l-0.003 0.461-1.173 84.712zM510.736 852.622c13.064-2.192 21.337-17.771 18.481-34.797-2.859-17.026-15.764-29.050-28.826-26.858-13.064 2.192-21.337 17.771-18.481 34.797 2.859 17.026 15.764 29.051 28.826 26.858zM436.332 790.926c13.061 2.192 21.334 17.771 18.478 34.797s-15.762 29.051-28.826 26.858c-13.061-2.192-21.337-17.771-18.478-34.797 2.856-17.026 15.762-29.051 28.826-26.858zM445.437 656.575c-6.198-2.695-12.665-4.312-19.672-4.312-26.408 0-47.697 22.097-47.427 49.043 0 20.211 10.779 36.379 24.792 48.775 37.457 33.145 93.507 33.415 130.964 0 13.743-12.126 23.983-28.295 23.983-48.775 0-26.947-21.288-49.043-47.697-49.043-7.006 0-13.743 1.617-19.672 4.312-14.552 6.737-30.72 6.737-45.272 0zM617.44 281.802c8.373-12.097 5.352-28.691-6.745-37.063-49.295-34.115-99.891-52.431-151.312-52.431-51.518 0-101.093 18.386-148.229 52.828-11.878 8.68-14.473 25.344-5.794 37.225 8.68 11.878 25.347 14.473 37.225 5.794 39.904-29.157 78.716-42.569 116.798-42.569 38.179 0 78.398 13.484 120.994 42.962 12.097 8.373 28.691 5.354 37.063-6.745zM369.718 395.719c0-23.665-19.545-42.846-43.655-42.846s-43.655 19.181-43.655 42.846c0 23.662 19.545 42.846 43.655 42.846s43.655-19.184 43.655-42.846zM594.728 352.873c24.11 0 43.655 19.181 43.655 42.846 0 23.662-19.545 42.846-43.655 42.846s-43.655-19.184-43.655-42.846c0-23.665 19.545-42.846 43.655-42.846zM371.262 745.352c12.32 4.481 17.562 21.164 11.709 37.263-5.856 16.099-20.59 25.517-32.911 21.036s-17.562-21.164-11.706-37.263c5.853-16.099 20.588-25.517 32.908-21.036zM549.546 782.615c-5.856-16.099-0.614-32.782 11.706-37.263s27.055 4.937 32.911 21.036c5.856 16.099 0.614 32.782-11.706 37.263s-27.055-4.937-32.911-21.036z" />
<glyph unicode="&#xe918;" glyph-name="pickup" d="M940.48 445.44l-214.080 91.84-81.28 138.88-2.56 3.84c-12.139 15.159-30.502 23.988-49.92 24h-256c-21.462 0.068-41.529-10.627-53.44-28.48l-108.48-163.52h-78.72c-17.673 0-32-14.327-32-32v-288c0-17.673 14.327-32 32-32h68.48c15.149-55.744 65.755-94.434 123.52-94.434s108.371 38.69 123.52 94.434h200.96c15.147-55.744 65.754-94.434 123.52-94.434s108.373 38.69 123.52 94.434h68.48c17.673 0 32 14.327 32 32v224c-0.009 12.843-7.697 24.431-19.52 29.44zM288 128c-35.346 0-64 28.655-64 64s28.654 64 64 64c35.346 0 64-28.655 64-64s-28.654-64-64-64zM736 128c-35.345 0-64 28.655-64 64s28.655 64 64 64c35.345 0 64-28.655 64-64s-28.655-64-64-64zM896 224h-36.48c-15.147 55.744-65.754 94.43-123.52 94.43s-108.373-38.686-123.52-94.43h-200.96c-15.149 55.744-65.755 94.43-123.52 94.43s-108.371-38.686-123.52-94.43h-36.48v224h64c10.705 0.055 20.672 5.461 26.56 14.4l118.72 177.6h256l84.16-144c3.435-5.986 8.708-10.701 15.040-13.44l203.52-87.68v-170.88z" />
<glyph unicode="&#xe919;" glyph-name="profile" d="M362.667 704c0 76.584 62.083 138.667 138.667 138.667 76.582 0 138.667-62.083 138.667-138.667s-62.084-138.667-138.667-138.667c-76.584 0-138.667 62.083-138.667 138.667zM501.333 906.667c-111.93 0-202.667-90.737-202.667-202.667s90.737-202.667 202.667-202.667c111.932 0 202.667 90.737 202.667 202.667s-90.735 202.667-202.667 202.667zM501.333 458.667c-212.233 0-384-171.767-384-384v-32h768v32c0 212.233-171.767 384-384 384zM501.333 394.667c166.084 0 302.396-126.17 318.426-288h-636.85c16.027 161.83 152.338 288 318.424 288z" />
<glyph unicode="&#xe91a;" glyph-name="puppy" d="M510.967 857.762c86.24 0 166.050-26.471 231.981-71.7 19.692 24.656 48.701 42.427 84.26 46.886 85.432 10.97 161.111-55.679 161.111-141.753v-122.88c0-42.775-28.508-78.735-67.553-90.219 0.66-10.202 0.993-20.406 0.993-30.614v-179.712c0-0.901 0.051-1.864 0.189-3.901l0.015-0.23c0.123-1.812 0.307-4.582 0.307-7.644 0-125.087-101.484-225.956-225.961-225.956-36.582 0-71.342 8.852-101.929 24.141l-0.21 0.108c-43.704 22.282-96.593 22.282-140.296 0l-0.208-0.108h-0.001c-30.585-15.288-65.348-24.141-101.931-24.141-117.567 0-213.743 89.646-224.881 203.776h-1.077v238.757l0.015 3.71c-42.696 8.963-74.767 46.665-74.767 92.034v122.88c0 86.074 75.679 152.722 161.109 141.753 33.522-4.204 61.226-20.24 80.789-42.722 62.112 42.683 137.154 67.535 218.044 67.535zM827.208 832.949l-0.056-0.007 3.814-29.618-3.702 29.632-0.056-0.007zM717.153 731.166c-57.81 42.073-128.901 66.871-206.186 66.871-70.968 0-136.49-22.566-190.098-61.169 8.72-34.097 3.777-72.081-18.699-104.989l-0.019-0.028-79.3-116.647c-9.538-14.1-22.536-24.811-37.202-31.728-0.098-3.609-0.147-7.232-0.147-10.905v-179.032h0.512v-29.865c0-2.826-0.264-5.427-0.382-6.589l-0.022-0.22-0.108-1.142c0.146-91.464 74.323-165.96 166.233-165.96 26.867 0 52.486 6.487 75.126 17.792 60.684 30.889 133.641 30.889 194.323 0 22.641-11.305 48.261-17.792 75.126-17.792 91.592 0 166.236 74.23 166.236 166.231 0 0.906-0.056 1.864-0.189 3.901l-0.015 0.23c-0.123 1.812-0.307 4.588-0.307 7.644v179.712c0 10.995-0.44 21.991-1.321 32.993-17.541 6.665-33.075 18.643-43.899 35.517l-79.621 115.859c-21.248 31.091-26.839 66.716-20.040 99.314zM204.561 773.706c-49.714 6.403-93.811-32.411-93.811-82.51v-122.88c0-17.943 13.83-32.775 31.69-34.215 12.504-0.807 24.483 5.007 30.952 14.582l0.048 0.070 79.4 116.795c29.534 43.22 3.105 101.735-48.168 108.144l-0.111 0.014zM834.78 773.706l-0.108-0.014c-51.261-6.407-77.691-64.897-48.189-108.114l80.486-117.155c5.929-9.394 16.983-15.134 29.952-14.32 17.853 1.45 31.672 16.278 31.672 34.213v122.88c0 50.1-44.099 88.913-93.814 82.51zM394.743 404.987c23.187 0 41.984 18.801 41.984 41.984 0 23.188-18.797 41.985-41.984 41.985s-41.984-18.797-41.984-41.985c0-23.183 18.797-41.984 41.984-41.984zM708.086 446.971c0-23.183-18.796-41.984-41.984-41.984-23.183 0-41.984 18.801-41.984 41.984 0 23.188 18.801 41.985 41.984 41.985 23.188 0 41.984-18.797 41.984-41.985zM543.677 298.117c6.574 2.171 12.851 5.535 18.488 10.102l18.432 14.848c21.504 16.896 9.216 51.712-17.92 51.712h-74.75c-27.136 0-39.424-34.304-17.92-51.712l18.432-14.848c4.755-3.85 9.961-6.845 15.419-8.996v-60.636c0-10.993 8.915-19.907 19.908-19.907 10.998 0 19.912 8.914 19.912 19.907v59.53z" />
<glyph unicode="&#xe91b;" glyph-name="send" d="M878.4 476.484l-703.998 352c-11.271 5.637-24.801 4.134-34.56-3.84-9.306-7.799-13.396-20.194-10.56-32l84.8-312.64h361.918v-64h-361.918l-86.080-311.68c-2.646-9.801-0.483-20.279 5.829-28.233s16.024-12.437 26.171-12.087c5.009 0.030 9.942 1.237 14.4 3.52l703.998 352c10.688 5.474 17.412 16.474 17.412 28.48s-6.724 23.006-17.412 28.48z" />
<glyph unicode="&#xe91c;" glyph-name="chat" horiz-adv-x="1195" d="M146.204 70.827c-35.84 0-72.249 3.413-108.658 7.964-17.067 2.276-31.289 14.222-35.84 31.289-4.551 16.498 1.138 34.133 14.791 44.942 59.733 46.080 116.053 96.711 132.551 153.031-96.142 71.68-149.049 166.684-149.049 267.947 0 211.627 236.089 384 526.222 384s526.222-172.373 526.222-384c0-211.627-236.089-384-526.222-384-38.116 0-76.231 2.844-112.64 9.102-65.422-102.4-162.702-130.276-267.378-130.276zM148.48 156.16c73.387 0 129.707 15.929 171.236 62.578l-29.582 14.222c-20.48 9.671-29.582 34.133-20.48 54.613 8.533 21.049 32.427 31.289 53.476 23.893 63.716-22.756 131.982-34.133 203.093-34.133 242.916 0 440.889 133.689 440.889 298.667s-197.973 298.667-440.889 298.667c-242.916 0-440.889-133.689-440.889-298.667 0-74.524 41.529-146.204 117.191-201.956 4.551-3.413 9.671-6.827 14.791-9.671l5.12-3.413c18.773-12.516 25.031-36.978 13.653-56.889-10.809-56.889-44.373-105.244-87.609-147.911zM1033.682-37.831c-79.644 0-153.031 20.48-203.662 97.28-26.738-3.982-54.613-6.258-82.489-6.258-116.622 0-227.557 36.978-303.788 101.262-18.773 15.929-35.84 33.564-49.493 52.338l60.871 44.373c10.24-14.222 22.756-27.307 37.547-39.822 96.143-81.351 269.086-106.951 406.188-58.027 18.773 6.258 39.253-2.276 47.218-20.48s0-39.253-18.204-48.356l-15.929-7.964c27.307-27.307 62.578-38.116 107.52-39.822-29.582 31.858-52.338 67.129-58.596 108.658-6.827 15.929-1.707 34.702 13.084 44.373 7.964 5.12 11.378 7.396 14.791 9.671 55.182 40.96 85.902 93.298 85.902 147.342 0 35.271-12.516 69.402-37.547 101.26-14.222 18.204-32.427 35.271-53.476 50.062l43.236 61.44c27.307-19.342 50.631-40.96 69.404-64.853 34.702-44.373 53.476-95.573 53.476-147.34 0-76.8-39.253-149.049-110.933-204.231 13.084-39.822 53.476-75.662 96.711-109.227 11.947-9.102 17.067-25.031 13.084-39.253-3.982-14.791-16.498-25.6-31.289-27.307-28.444-2.844-56.32-5.12-83.627-5.12z" />
<glyph unicode="&#xe91d;" glyph-name="prac" d="M163.646 727.323c17.129 16.594 43.17 32.644 77.308 46.632 68.159 27.929 163.977 45.757 271.049 45.757s202.89-17.828 271.050-45.757c34.138-13.988 60.179-30.038 77.306-46.632 17.059-16.524 23.834-32.047 23.834-45.953v-0.072c-0.022-13.888-6.806-29.385-23.834-45.88-5.251-5.088-11.341-10.125-18.243-15.066-69.258 52.624-193.072 85.018-330.112 85.018-137.002 0-260.634-32.446-330.336-84.858-6.812 4.89-12.826 9.872-18.020 14.906-17.057 16.523-23.834 32.046-23.834 45.952s6.777 29.429 23.834 45.953zM884.192 592.298v-73.27c0-13.91-6.781-29.437-23.846-45.965-17.136-16.595-43.187-32.643-77.334-46.63-5.901-2.419-12.013-4.762-18.32-7.024 2.87 10.166 4.272 20.666 4.272 31.030 0 25.379-8.397 51.555-26.234 71.712-0.538 0.608-1.082 1.206-1.635 1.798 21.514 6 41.654 12.838 60.157 20.419 32.598 13.357 60.995 29.382 82.941 47.93zM512.003 495.027c54.589 0 106.922 4.419 154.944 12.534 18.838-0.65 31.539-7.85 39.837-17.226 9.104-10.282 14.179-24.691 14.179-39.898s-5.075-29.613-14.179-39.898c-4.147-4.688-9.395-8.832-15.962-11.885-53.030-11.405-113.862-17.968-178.819-17.968-107.014 0-202.835 17.818-271.010 45.744-34.146 13.987-60.197 30.035-77.334 46.63-17.065 16.528-23.847 32.054-23.847 45.965v73.27c21.948-18.547 50.344-34.573 82.942-47.93 75.233-30.826 177.511-49.341 289.249-49.341zM536.003 332.973c46.118 1.104 90.368 5.366 131.459 12.339 13.869 0.355 26.56 2.947 37.923 7.395 35.158 7.792 67.418 17.67 95.821 29.306 37.565 15.389 69.555 34.317 92.531 56.57 23.050 22.32 38.454 49.51 38.454 80.445v162.342c0 30.923-15.395 58.108-38.435 80.428-22.966 22.251-54.947 41.183-92.506 56.572-75.232 30.827-177.51 49.341-289.248 49.341s-214.016-18.514-289.249-49.341c-37.559-15.39-69.539-34.322-92.507-56.572-23.040-22.32-38.435-49.505-38.435-80.428v-162.342c0-30.934 15.405-58.125 38.454-80.445 22.977-22.253 54.967-41.181 92.532-56.57 69.822-28.598 162.916-46.595 265.204-49.040v-57.456h-25.834c-11.555 0-22.214-6.234-27.885-16.304l-50.528-89.757c-5.485-9.744-5.485-21.648 0-31.395l50.528-89.754c5.67-10.074 16.33-16.304 27.885-16.304h99.667c11.555 0 22.214 6.23 27.885 16.304l50.528 89.754c5.485 9.747 5.485 21.651 0 31.395l-50.528 89.757c-5.67 10.070-16.33 16.304-27.885 16.304h-25.834v57.456zM795.453 594.115c-4.006-1.808-8.141-3.584-12.4-5.331-68.16-27.93-163.978-45.757-271.050-45.757s-202.89 17.827-271.049 45.757c-4.318 1.77-8.507 3.571-12.564 5.405 61.286 37.181 164.010 63.181 283.613 63.181 119.59 0 222.474-25.946 283.45-63.254zM538.829 234.931c11.571 0 22.243-6.246 27.907-16.339l27.6-49.168c5.459-9.728 5.459-21.6 0-31.328l-27.6-49.171c-5.664-10.090-16.336-16.336-27.907-16.336h-53.654c-11.571 0-22.24 6.246-27.904 16.336l-27.6 49.171c-5.459 9.728-5.459 21.6 0 31.328l27.6 49.168c5.664 10.093 16.333 16.339 27.904 16.339h53.654zM500.838 136.931v34.47c-4.061 0-8.118 1.584-10.96 4.358-6.086 5.942-6.086 15.846 0 21.789 6.090 5.942 16.234 5.942 22.323 0 6.086 5.942 16.234 5.942 22.32 0 6.090-5.942 6.090-15.846 0-21.789-2.838-2.774-6.899-4.358-10.957-4.358v-34.47c4.058 0 7.712-1.187 10.957-4.355 6.090-5.946 6.090-15.85 0-21.792-6.086-5.942-16.234-5.942-22.32 0-6.090-5.942-16.234-5.942-22.323 0-6.086 5.942-6.086 15.846 0 21.792 2.842 2.771 6.899 4.355 10.96 4.355z" />
<glyph unicode="&#xe91e;" glyph-name="activity" horiz-adv-x="1078" d="M161.486 757.671c6.413 89.536 75.65 165.423 167.951 176.761 104.804 12.874 200.9-62.195 213.773-166.999 4.651-37.863-2.172-74.852-17.695-106.999l210.568-164.494c27.432 22.842 61.672 38.417 99.533 43.068 104.804 12.874 200.898-62.195 213.773-166.999 11.339-92.3-45.536-177.847-130.856-205.738-6.413-89.541-75.652-165.425-167.952-176.764-104.804-12.875-200.898 62.195-213.772 166.998-4.651 37.866 2.176 74.854 17.698 107.003l-210.568 164.493c-27.435-22.841-61.672-38.417-99.535-43.068-104.805-12.875-200.9 62.195-213.774 167-11.338 92.301 45.534 177.846 130.857 205.739zM207.486 685.467c-60.489-7.43-104.048-63.189-96.617-123.679s63.189-104.048 123.679-96.617c30.308 3.723 56.628 19.552 73.989 41.778l24.884 31.853 331.139-258.684-24.883-31.852c-17.365-22.226-26.355-51.593-22.63-81.904 7.432-60.486 63.192-104.044 123.678-96.617 60.491 7.432 104.049 63.192 96.617 123.678l-4.926 40.119 40.119 4.931c60.491 7.432 104.049 63.186 96.617 123.678-7.432 60.49-63.186 104.048-123.678 96.618-30.31-3.723-56.627-19.552-73.992-41.78l-24.883-31.852-331.137 258.684 24.884 31.853c17.362 22.225 26.351 51.593 22.628 81.901-7.43 60.49-63.189 104.048-123.678 96.617s-104.048-63.189-96.618-123.678l4.929-40.12-40.12-4.928z" />
<glyph unicode="&#xe91f;" glyph-name="location" horiz-adv-x="780" d="M73.143 582.095c0 168.511 136.251 304.762 304.762 304.762s304.762-136.251 304.762-304.762c0-37.967-17.783-90.046-49.196-150.333-30.808-59.134-72.299-121.676-114.41-179.215-42.016-57.407-84.11-109.119-115.744-146.515-9.531-11.264-18.099-21.216-25.412-29.618-7.312 8.402-15.88 18.354-25.412 29.618-31.634 37.396-73.728 89.108-115.742 146.515-42.112 57.539-83.602 120.081-114.413 179.215-31.41 60.287-49.195 112.365-49.195 150.333zM350.946-3.379c0.006-0.005 0.010-0.010 26.959 24.713l-26.949-24.722 26.949-29.374 26.949 29.374-26.949 24.722c26.949-24.722 26.953-24.717 26.959-24.713l0.018 0.020 0.059 0.063 0.21 0.229 0.783 0.858 2.959 3.267c2.572 2.853 6.315 7.027 11.061 12.386 9.492 10.723 23.007 26.205 39.207 45.353 32.365 38.259 75.602 91.36 118.922 150.552 43.223 59.060 87.064 124.918 120.257 188.616 32.588 62.547 57.471 127.743 57.471 184.13 0 208.906-168.999 377.905-377.905 377.905s-377.905-168.999-377.905-377.905c0-56.387 24.882-121.583 57.472-184.13 33.189-63.698 77.032-129.556 120.254-188.616 43.32-59.192 86.558-112.294 118.924-150.552 16.2-19.149 29.715-34.631 39.207-45.353 4.746-5.359 8.489-9.533 11.061-12.386l2.959-3.267 0.783-0.858 0.21-0.229 0.077-0.083zM268.19 569.905c0 60.593 49.121 109.714 109.714 109.714s109.714-49.121 109.714-109.714c0-60.593-49.121-109.714-109.714-109.714s-109.714 49.121-109.714 109.714zM377.905 752.762c-100.989 0-182.857-81.868-182.857-182.857 0-100.991 81.868-182.857 182.857-182.857s182.857 81.866 182.857 182.857c0 100.989-81.868 182.857-182.857 182.857z" />
<glyph unicode="&#xe920;" glyph-name="daycare" d="M475.429 960h73.143v-181.394h-73.143v181.394zM719.982 708.023l128.256 128.219 51.712-51.712-128.256-128.256-51.712 51.749zM842.606 484.571h181.394v-73.143h-181.394v73.143zM720.201 188.197l51.712 51.712 128.256-128.256-51.712-51.675-128.256 128.219zM475.429 117.394h73.143v-181.394h-73.143v181.394zM124.197 111.47l128.293 128.256 51.712-51.712-128.256-128.256-51.749 51.712zM0 484.571h181.394v-73.143h-181.394v73.143zM123.977 784.347l51.749 51.712 128.256-128.256-51.712-51.712-128.293 128.256zM512 594.286c80.79 0 146.286-65.496 146.286-146.286s-65.496-146.286-146.286-146.286c-80.79 0-146.286 65.496-146.286 146.286s65.496 146.286 146.286 146.286zM512 667.429c-121.187 0-219.429-98.242-219.429-219.429s98.242-219.429 219.429-219.429c121.187 0 219.429 98.242 219.429 219.429s-98.242 219.429-219.429 219.429z" />
<glyph unicode="&#xe921;" glyph-name="Union" horiz-adv-x="1303" d="M74.545 890.182c0 38.56 31.259 69.818 69.818 69.818h1024.002c38.558 0 69.818-31.259 69.818-69.818s-31.26-69.818-69.818-69.818h-1024.002c-38.559 0-69.818 31.259-69.818 69.818zM74.545 471.273c0 38.559 31.259 69.818 69.818 69.818h558.545c38.559 0 69.818-31.259 69.818-69.818s-31.259-69.818-69.818-69.818h-558.545c-38.559 0-69.818 31.259-69.818 69.818zM144.364 122.182c-38.559 0-69.818-31.259-69.818-69.818s31.259-69.818 69.818-69.818h1024.002c38.558 0 69.818 31.26 69.818 69.818s-31.26 69.818-69.818 69.818h-1024.002z" />
<glyph unicode="&#xe922;" glyph-name="camera" horiz-adv-x="1229" d="M59.733-12.8h1109.333c23.566 0 42.667 19.101 42.667 42.667v725.333c0 23.564-19.101 42.667-42.667 42.667h-275.627l-72.957 108.8c-7.851 11.92-21.142 19.126-35.417 19.2h-341.333c-14.273-0.074-27.563-7.28-35.413-19.2l-72.96-108.8h-275.627c-23.564 0-42.667-19.102-42.667-42.667v-725.333c0-23.566 19.103-42.667 42.667-42.667zM358.4 430.933c0-141.385 114.615-256 256-256 141.387 0 256 114.615 256 256s-114.613 256-256 256c-141.385 0-256-114.615-256-256zM443.733 430.933c0 94.256 76.41 170.667 170.667 170.667s170.667-76.41 170.667-170.667c0-94.256-76.411-170.667-170.667-170.667s-170.667 76.41-170.667 170.667zM1126.4 72.533h-1024v640h256c14.273 0.074 27.563 7.279 35.413 19.2l72.96 108.8h295.253l72.957-108.8c7.851-11.921 21.142-19.126 35.417-19.2h256v-640z" />
</font>
</defs>
</svg>
